<svg width="45" height="90" viewBox="0 0 45 90" fill="none" xmlns="http://www.w3.org/2000/svg">
<path fill-rule="evenodd" clip-rule="evenodd" d="M22.5 0C34.9264 0 45 10.0736 45 22.5V67.5C45 79.9264 34.9264 90 22.5 90C10.0736 90 0 79.9264 0 67.5V22.5C0 10.0736 10.0736 0 22.5 0ZM35 20.5C35 27.4036 29.4036 33 22.5 33C15.5964 33 10 27.4036 10 20.5C10 13.5964 15.5964 8 22.5 8C29.4036 8 35 13.5964 35 20.5ZM22.5 78C29.4036 78 35 72.4036 35 65.5C35 58.5964 29.4036 53 22.5 53C15.5964 53 10 58.5964 10 65.5C10 72.4036 15.5964 78 22.5 78Z" fill="#BDFF22"/>
</svg>
