<svg width="90" height="90" viewBox="0 0 90 90" fill="none" xmlns="http://www.w3.org/2000/svg">
<path fill-rule="evenodd" clip-rule="evenodd" d="M45 90C69.8528 90 90 69.8528 90 45C90 20.1472 69.8528 0 45 0C20.1472 0 0 20.1472 0 45C0 69.8528 20.1472 90 45 90ZM45 75C61.5685 75 75 61.5685 75 45C75 28.4315 61.5685 15 45 15C28.4315 15 15 28.4315 15 45C15 61.5685 28.4315 75 45 75ZM50 82C50 84.2091 48.2091 86 46 86C43.7909 86 42 84.2091 42 82C42 79.7909 43.7909 78 46 78C48.2091 78 50 79.7909 50 82ZM3 45C3 47.2091 4.79086 49 7 49C9.20914 49 11 47.2091 11 45C11 42.7909 9.20914 41 7 41C4.79086 41 3 42.7909 3 45ZM50 8C50 10.2091 48.2091 12 46 12C43.7909 12 42 10.2091 42 8C42 5.79086 43.7909 4 46 4C48.2091 4 50 5.79086 50 8ZM79 45C79 47.2091 80.7909 49 83 49C85.2091 49 87 47.2091 87 45C87 42.7909 85.2091 41 83 41C80.7909 41 79 42.7909 79 45Z" fill="#BDFF22"/>
</svg>
